<svg width="230" height="50" viewBox="0 0 230 50" fill="none" xmlns="http://www.w3.org/2000/svg">
<path d="M6.875 11.25C6.37772 11.25 5.90081 11.4475 5.54917 11.7992C5.19754 12.1508 5 12.6277 5 13.125C5 13.6223 5.19754 14.0992 5.54917 14.4508C5.90081 14.8025 6.37772 15 6.875 15H19.375C19.8723 15 20.3492 14.8025 20.7008 14.4508C21.0525 14.0992 21.25 13.6223 21.25 13.125C21.25 12.6277 21.0525 12.1508 20.7008 11.7992C20.3492 11.4475 19.8723 11.25 19.375 11.25H6.875ZM14.375 18.75C13.8777 18.75 13.4008 18.9475 13.0492 19.2992C12.6975 19.6508 12.5 20.1277 12.5 20.625C12.5 21.1223 12.6975 21.5992 13.0492 21.9508C13.4008 22.3025 13.8777 22.5 14.375 22.5H25.625C26.1223 22.5 26.5992 22.3025 26.9508 21.9508C27.3025 21.5992 27.5 21.1223 27.5 20.625C27.5 20.1277 27.3025 19.6508 26.9508 19.2992C26.5992 18.9475 26.1223 18.75 25.625 18.75H14.375ZM10 28.125C10 27.6277 10.1975 27.1508 10.5492 26.7992C10.9008 26.4475 11.3777 26.25 11.875 26.25H35.625C36.1223 26.25 36.5992 26.4475 36.9508 26.7992C37.3025 27.1508 37.5 27.6277 37.5 28.125C37.5 28.6223 37.3025 29.0992 36.9508 29.4508C36.5992 29.8025 36.1223 30 35.625 30H11.875C11.3777 30 10.9008 29.8025 10.5492 29.4508C10.1975 29.0992 10 28.6223 10 28.125ZM6.875 33.75C6.37772 33.75 5.90081 33.9475 5.54917 34.2992C5.19754 34.6508 5 35.1277 5 35.625C5 36.1223 5.19754 36.5992 5.54917 36.9508C5.90081 37.3025 6.37772 37.5 6.875 37.5H26.875C27.3723 37.5 27.8492 37.3025 28.2008 36.9508C28.5525 36.5992 28.75 36.1223 28.75 35.625C28.75 35.1277 28.5525 34.6508 28.2008 34.2992C27.8492 33.9475 27.3723 33.75 26.875 33.75H6.875ZM31.25 20.625C31.25 20.1277 31.4475 19.6508 31.7992 19.2992C32.1508 18.9475 32.6277 18.75 33.125 18.75H40.625C41.1223 18.75 41.5992 18.9475 41.9508 19.2992C42.3025 19.6508 42.5 20.1277 42.5 20.625C42.5 21.1223 42.3025 21.5992 41.9508 21.9508C41.5992 22.3025 41.1223 22.5 40.625 22.5H33.125C32.6277 22.5 32.1508 22.3025 31.7992 21.9508C31.4475 21.5992 31.25 21.1223 31.25 20.625ZM26.875 11.25C26.3777 11.25 25.9008 11.4475 25.5492 11.7992C25.1975 12.1508 25 12.6277 25 13.125C25 13.6223 25.1975 14.0992 25.5492 14.4508C25.9008 14.8025 26.3777 15 26.875 15H43.125C43.6223 15 44.0992 14.8025 44.4508 14.4508C44.8025 14.0992 45 13.6223 45 13.125C45 12.6277 44.8025 12.1508 44.4508 11.7992C44.0992 11.4475 43.6223 11.25 43.125 11.25H26.875Z" fill="#09D477"/>
<path d="M64.86 26.48C64.86 25.36 65.0867 24.38 65.54 23.54C65.9933 22.6867 66.6133 22.0267 67.4 21.56C68.2 21.0933 69.0867 20.86 70.06 20.86C71.02 20.86 71.8533 21.0667 72.56 21.48C73.2667 21.8933 73.7933 22.4133 74.14 23.04V21.04H75.98V32H74.14V29.96C73.78 30.6 73.24 31.1333 72.52 31.56C71.8133 31.9733 70.9867 32.18 70.04 32.18C69.0667 32.18 68.1867 31.94 67.4 31.46C66.6133 30.98 65.9933 30.3067 65.54 29.44C65.0867 28.5733 64.86 27.5867 64.86 26.48ZM74.14 26.5C74.14 25.6733 73.9733 24.9533 73.64 24.34C73.3067 23.7267 72.8533 23.26 72.28 22.94C71.72 22.6067 71.1 22.44 70.42 22.44C69.74 22.44 69.12 22.6 68.56 22.92C68 23.24 67.5533 23.7067 67.22 24.32C66.8867 24.9333 66.72 25.6533 66.72 26.48C66.72 27.32 66.8867 28.0533 67.22 28.68C67.5533 29.2933 68 29.7667 68.56 30.1C69.12 30.42 69.74 30.58 70.42 30.58C71.1 30.58 71.72 30.42 72.28 30.1C72.8533 29.7667 73.3067 29.2933 73.64 28.68C73.9733 28.0533 74.14 27.3267 74.14 26.5ZM78.3756 26.48C78.3756 25.36 78.6023 24.38 79.0556 23.54C79.509 22.6867 80.129 22.0267 80.9156 21.56C81.7156 21.0933 82.609 20.86 83.5956 20.86C84.449 20.86 85.2423 21.06 85.9756 21.46C86.709 21.8467 87.269 22.36 87.6556 23V17.2H89.4956V32H87.6556V29.94C87.2956 30.5933 86.7623 31.1333 86.0556 31.56C85.349 31.9733 84.5223 32.18 83.5756 32.18C82.6023 32.18 81.7156 31.94 80.9156 31.46C80.129 30.98 79.509 30.3067 79.0556 29.44C78.6023 28.5733 78.3756 27.5867 78.3756 26.48ZM87.6556 26.5C87.6556 25.6733 87.489 24.9533 87.1556 24.34C86.8223 23.7267 86.369 23.26 85.7956 22.94C85.2356 22.6067 84.6156 22.44 83.9356 22.44C83.2556 22.44 82.6356 22.6 82.0756 22.92C81.5156 23.24 81.069 23.7067 80.7356 24.32C80.4023 24.9333 80.2356 25.6533 80.2356 26.48C80.2356 27.32 80.4023 28.0533 80.7356 28.68C81.069 29.2933 81.5156 29.7667 82.0756 30.1C82.6356 30.42 83.2556 30.58 83.9356 30.58C84.6156 30.58 85.2356 30.42 85.7956 30.1C86.369 29.7667 86.8223 29.2933 87.1556 28.68C87.489 28.0533 87.6556 27.3267 87.6556 26.5ZM91.8913 26.48C91.8913 25.36 92.1179 24.38 92.5713 23.54C93.0246 22.6867 93.6446 22.0267 94.4313 21.56C95.2313 21.0933 96.1179 20.86 97.0913 20.86C98.0513 20.86 98.8846 21.0667 99.5913 21.48C100.298 21.8933 100.825 22.4133 101.171 23.04V21.04H103.011V32H101.171V29.96C100.811 30.6 100.271 31.1333 99.5513 31.56C98.8446 31.9733 98.0179 32.18 97.0713 32.18C96.0979 32.18 95.2179 31.94 94.4313 31.46C93.6446 30.98 93.0246 30.3067 92.5713 29.44C92.1179 28.5733 91.8913 27.5867 91.8913 26.48ZM101.171 26.5C101.171 25.6733 101.005 24.9533 100.671 24.34C100.338 23.7267 99.8846 23.26 99.3113 22.94C98.7513 22.6067 98.1313 22.44 97.4513 22.44C96.7713 22.44 96.1513 22.6 95.5913 22.92C95.0313 23.24 94.5846 23.7067 94.2513 24.32C93.9179 24.9333 93.7513 25.6533 93.7513 26.48C93.7513 27.32 93.9179 28.0533 94.2513 28.68C94.5846 29.2933 95.0313 29.7667 95.5913 30.1C96.1513 30.42 96.7713 30.58 97.4513 30.58C98.1313 30.58 98.7513 30.42 99.3113 30.1C99.8846 29.7667 100.338 29.2933 100.671 28.68C101.005 28.0533 101.171 27.3267 101.171 26.5ZM119.267 20.84C120.12 20.84 120.88 21.02 121.547 21.38C122.214 21.7267 122.74 22.2533 123.127 22.96C123.514 23.6667 123.707 24.5267 123.707 25.54V32H121.907V25.8C121.907 24.7067 121.634 23.8733 121.087 23.3C120.554 22.7133 119.827 22.42 118.907 22.42C117.96 22.42 117.207 22.7267 116.647 23.34C116.087 23.94 115.807 24.8133 115.807 25.96V32H114.007V25.8C114.007 24.7067 113.734 23.8733 113.187 23.3C112.654 22.7133 111.927 22.42 111.007 22.42C110.06 22.42 109.307 22.7267 108.747 23.34C108.187 23.94 107.907 24.8133 107.907 25.96V32H106.087V21.04H107.907V22.62C108.267 22.0467 108.747 21.6067 109.347 21.3C109.96 20.9933 110.634 20.84 111.367 20.84C112.287 20.84 113.1 21.0467 113.807 21.46C114.514 21.8733 115.04 22.48 115.387 23.28C115.694 22.5067 116.2 21.9067 116.907 21.48C117.614 21.0533 118.4 20.84 119.267 20.84ZM129.812 22.7C130.212 22.0867 130.712 21.6067 131.312 21.26C131.912 20.9 132.579 20.72 133.312 20.72V24.34H132.372C131.519 24.34 130.879 24.5267 130.452 24.9C130.026 25.26 129.812 25.9 129.812 26.82V32H126.392V20.84H129.812V22.7ZM146.347 20.84L139.347 37.3H135.667L138.227 31.62L133.687 20.84H137.507L140.087 27.82L142.647 20.84H146.347ZM146.904 26.4C146.904 25.2533 147.117 24.2467 147.544 23.38C147.984 22.5133 148.577 21.8467 149.324 21.38C150.07 20.9133 150.904 20.68 151.824 20.68C152.557 20.68 153.224 20.8333 153.824 21.14C154.437 21.4467 154.917 21.86 155.264 22.38V17.2H158.684V32H155.264V30.4C154.944 30.9333 154.484 31.36 153.884 31.68C153.297 32 152.61 32.16 151.824 32.16C150.904 32.16 150.07 31.9267 149.324 31.46C148.577 30.98 147.984 30.3067 147.544 29.44C147.117 28.56 146.904 27.5467 146.904 26.4ZM155.264 26.42C155.264 25.5667 155.024 24.8933 154.544 24.4C154.077 23.9067 153.504 23.66 152.824 23.66C152.144 23.66 151.564 23.9067 151.084 24.4C150.617 24.88 150.384 25.5467 150.384 26.4C150.384 27.2533 150.617 27.9333 151.084 28.44C151.564 28.9333 152.144 29.18 152.824 29.18C153.504 29.18 154.077 28.9333 154.544 28.44C155.024 27.9467 155.264 27.2733 155.264 26.42ZM164.358 29.18H169.198V32H160.538V29.28L165.178 23.66H160.578V20.84H169.098V23.56L164.358 29.18ZM170.4 26.4C170.4 25.2533 170.613 24.2467 171.04 23.38C171.48 22.5133 172.073 21.8467 172.82 21.38C173.567 20.9133 174.4 20.68 175.32 20.68C176.107 20.68 176.793 20.84 177.38 21.16C177.98 21.48 178.44 21.9 178.76 22.42V20.84H182.18V32H178.76V30.42C178.427 30.94 177.96 31.36 177.36 31.68C176.773 32 176.087 32.16 175.3 32.16C174.393 32.16 173.567 31.9267 172.82 31.46C172.073 30.98 171.48 30.3067 171.04 29.44C170.613 28.56 170.4 27.5467 170.4 26.4ZM178.76 26.42C178.76 25.5667 178.52 24.8933 178.04 24.4C177.573 23.9067 177 23.66 176.32 23.66C175.64 23.66 175.06 23.9067 174.58 24.4C174.113 24.88 173.88 25.5467 173.88 26.4C173.88 27.2533 174.113 27.9333 174.58 28.44C175.06 28.9333 175.64 29.18 176.32 29.18C177 29.18 177.573 28.9333 178.04 28.44C178.52 27.9467 178.76 27.2733 178.76 26.42Z" fill="#505754"/>
<path d="M186.254 32.16C185.654 32.16 185.161 31.9867 184.774 31.64C184.401 31.28 184.214 30.84 184.214 30.32C184.214 29.7867 184.401 29.34 184.774 28.98C185.161 28.62 185.654 28.44 186.254 28.44C186.841 28.44 187.321 28.62 187.694 28.98C188.081 29.34 188.274 29.7867 188.274 30.32C188.274 30.84 188.081 31.28 187.694 31.64C187.321 31.9867 186.841 32.16 186.254 32.16ZM189.619 26.4C189.619 25.2533 189.832 24.2467 190.259 23.38C190.699 22.5133 191.292 21.8467 192.039 21.38C192.785 20.9133 193.619 20.68 194.539 20.68C195.272 20.68 195.939 20.8333 196.539 21.14C197.152 21.4467 197.632 21.86 197.979 22.38V17.2H201.399V32H197.979V30.4C197.659 30.9333 197.199 31.36 196.599 31.68C196.012 32 195.325 32.16 194.539 32.16C193.619 32.16 192.785 31.9267 192.039 31.46C191.292 30.98 190.699 30.3067 190.259 29.44C189.832 28.56 189.619 27.5467 189.619 26.4ZM197.979 26.42C197.979 25.5667 197.739 24.8933 197.259 24.4C196.792 23.9067 196.219 23.66 195.539 23.66C194.859 23.66 194.279 23.9067 193.799 24.4C193.332 24.88 193.099 25.5467 193.099 26.4C193.099 27.2533 193.332 27.9333 193.799 28.44C194.279 28.9333 194.859 29.18 195.539 29.18C196.219 29.18 196.792 28.9333 197.259 28.44C197.739 27.9467 197.979 27.2733 197.979 26.42ZM214.393 26.24C214.393 26.56 214.373 26.8933 214.333 27.24H206.593C206.646 27.9333 206.866 28.4667 207.253 28.84C207.653 29.2 208.139 29.38 208.713 29.38C209.566 29.38 210.159 29.02 210.493 28.3H214.133C213.946 29.0333 213.606 29.6933 213.113 30.28C212.633 30.8667 212.026 31.3267 211.293 31.66C210.559 31.9933 209.739 32.16 208.833 32.16C207.739 32.16 206.766 31.9267 205.913 31.46C205.059 30.9933 204.393 30.3267 203.913 29.46C203.433 28.5933 203.193 27.58 203.193 26.42C203.193 25.26 203.426 24.2467 203.893 23.38C204.373 22.5133 205.039 21.8467 205.893 21.38C206.746 20.9133 207.726 20.68 208.833 20.68C209.913 20.68 210.873 20.9067 211.713 21.36C212.553 21.8133 213.206 22.46 213.673 23.3C214.153 24.14 214.393 25.12 214.393 26.24ZM210.893 25.34C210.893 24.7533 210.693 24.2867 210.293 23.94C209.893 23.5933 209.393 23.42 208.793 23.42C208.219 23.42 207.733 23.5867 207.333 23.92C206.946 24.2533 206.706 24.7267 206.613 25.34H210.893ZM221.217 28.8L223.637 20.84H227.277L223.317 32H219.097L215.137 20.84H218.797L221.217 28.8Z" fill="#09D477"/>
</svg>
